<svg width="20" height="20" viewBox="0 0 20 20" fill="none" xmlns="http://www.w3.org/2000/svg">
<path d="M17.3265 0.0670834C16.0937 0.423334 1.30468 5.00771 1.15936 5.08271C0.887488 5.21396 0.52655 5.54208 0.343738 5.82802C-0.0921997 6.50771 -0.0921997 7.44521 0.343738 8.1249C0.653113 8.6124 0.7703 8.67802 3.89217 10.2577L6.82655 11.739L8.75311 9.81708C10.1969 8.37802 10.7312 7.87177 10.8906 7.80146C11.7484 7.4124 12.6015 8.29365 12.1797 9.1374C12.0953 9.30615 11.5797 9.8499 10.1687 11.2608L8.27499 13.1546L9.74218 16.0936C11.3219 19.253 11.4109 19.3936 11.9078 19.689C12.5969 20.0921 13.5109 20.078 14.1719 19.6561C14.4765 19.4593 14.7953 19.103 14.9359 18.7983C15.0015 18.6624 16.1547 14.9686 17.5047 10.5858C19.7265 3.3624 19.9609 2.57958 19.975 2.23271C20.0031 1.61396 19.825 1.12646 19.4078 0.681147C19.1219 0.385834 18.8687 0.22646 18.4797 0.104584C18.175 0.0108337 17.5937 -0.0079155 17.3265 0.0670834Z" fill="#2C2C2E"/>
</svg>
