<svg width="24" height="24" viewBox="0 0 24 24" fill="none" xmlns="http://www.w3.org/2000/svg">
<path d="M7.94532 3.46879C6.01876 3.76879 4.51407 5.34848 4.3172 7.28442C4.23751 8.07192 4.35938 8.79848 4.6922 9.50629C5.55938 11.3719 7.6547 12.3704 9.63282 11.8594C10.0453 11.7563 10.6641 11.475 10.9969 11.2454C11.8219 10.6782 12.4547 9.76411 12.7313 8.73754C12.8531 8.27817 12.8531 7.14379 12.7313 6.67973C12.225 4.79067 10.65 3.52036 8.71876 3.44536C8.44688 3.43598 8.10001 3.44536 7.94532 3.46879Z" fill="#2C2C2E"/>
<path d="M16.9453 6.07503C16.2609 6.22034 15.5297 6.68441 15.1125 7.23284C14.5359 7.99222 14.325 8.92035 14.5125 9.83441C14.8922 11.6766 16.7906 12.7875 18.5859 12.2157C20.4093 11.6344 21.314 9.5766 20.5125 7.85159C19.8797 6.5016 18.4078 5.76566 16.9453 6.07503Z" fill="#2C2C2E"/>
<path d="M7.71092 13.2281C4.06405 13.6359 1.21405 16.5094 0.792174 20.1937C0.693737 21.075 0.759362 21.375 1.09686 21.6281C1.22342 21.7266 1.2328 21.7266 8.52186 21.7359L15.8203 21.75L16.0078 21.6422C16.139 21.5719 16.2281 21.4688 16.3078 21.3094C16.4203 21.0797 16.4203 21.075 16.3687 20.4422C16.3359 20.0906 16.2797 19.6453 16.2375 19.4531C16.1297 18.9375 15.825 18.0375 15.5859 17.5453C14.9812 16.3031 13.8609 15.0656 12.6797 14.3437C11.2078 13.4391 9.4078 13.0359 7.71092 13.2281Z" fill="#2C2C2E"/>
<path d="M16.6688 13.3406C16.2 13.425 15.5672 13.6359 15.1406 13.8516C14.9625 13.9406 14.8125 14.025 14.8125 14.0391C14.8125 14.0484 15 14.2453 15.225 14.475C16.425 15.6844 17.3156 17.3438 17.6719 19.0312C17.7328 19.3031 17.7844 19.5516 17.7938 19.5797C17.8078 19.6266 18.3281 19.6406 20.2172 19.6406C22.6172 19.6406 22.6219 19.6406 22.8281 19.5375C23.2406 19.3266 23.325 18.9797 23.1844 18.0469C23.0625 17.2359 22.725 16.3875 22.2563 15.6891C21.7781 14.9719 20.775 14.1328 19.95 13.7578C18.975 13.3125 17.7094 13.1531 16.6688 13.3406Z" fill="#2C2C2E"/>
</svg>
