<svg width="32" height="32" viewBox="0 0 32 32" fill="none" xmlns="http://www.w3.org/2000/svg">
    <path d="M9.25413 5.55013C10.6729 4.06263 12.5104 3.10013 14.5104 2.78138C14.6594 2.75767 14.8975 2.73763 15.1653 2.7225C15.2253 2.69498 15.5731 2.68677 15.9895 2.69327C16.4059 2.68677 16.7538 2.69498 16.8137 2.7225C17.0816 2.73763 17.3197 2.75767 17.4687 2.78138C19.4687 3.10013 21.3062 4.06263 22.725 5.55013C23.975 6.85013 24.7687 8.34388 25.1625 10.1564C25.2875 10.7314 25.3 11.0314 25.3437 13.8439C25.3875 16.6314 25.4 16.9626 25.525 17.5126C25.9437 19.4189 26.7875 20.8939 28.2812 22.3376C29.125 23.1501 29.3125 23.5189 29.3125 24.3439C29.3125 24.8189 29.2812 24.9626 29.1437 25.2626C28.8187 25.9564 28.1312 26.4689 27.3187 26.6189C27.3088 26.6207 27.2906 26.6226 27.2644 26.6243L27.2604 26.6251C27.0201 26.6719 21.5095 26.6938 15.9895 26.6923C10.4696 26.6938 4.95901 26.6719 4.71871 26.6251L4.71468 26.6243C4.6885 26.6226 4.67029 26.6207 4.66038 26.6189C3.84788 26.4689 3.16038 25.9564 2.83538 25.2626C2.69788 24.9626 2.66663 24.8189 2.66663 24.3439C2.66663 23.5189 2.85413 23.1501 3.69788 22.3376C5.19163 20.8939 6.03538 19.4189 6.45413 17.5126C6.57913 16.9626 6.59163 16.6314 6.63538 13.8439C6.67913 11.0314 6.69163 10.7314 6.81663 10.1564C7.21038 8.34388 8.00413 6.85013 9.25413 5.55013ZM11.4916 29.2189C11.3666 28.9689 11.0729 28.1314 11.0729 28.0251C11.0729 28.0242 11.0843 28.0233 11.1064 28.0224L11.1 28.0001H15.9729H16.0062H20.8791L20.8727 28.0224C20.8948 28.0233 20.9062 28.0242 20.9062 28.0251C20.9062 28.1314 20.6125 28.9689 20.4875 29.2189C19.85 30.4814 18.6937 31.4251 17.3 31.8251C17.254 31.8382 17.2049 31.8504 17.153 31.8617C16.8521 31.9354 16.4237 31.9709 15.9895 31.9692C15.5554 31.9709 15.127 31.9354 14.8261 31.8617C14.7742 31.8504 14.725 31.8382 14.6791 31.8251C13.2854 31.4251 12.1291 30.4814 11.4916 29.2189Z"
          fill="#2C2C2E"/>
</svg>
