<svg width="53" height="64" viewBox="0 0 53 64" fill="none" xmlns="http://www.w3.org/2000/svg">
<path d="M19.9199 0.267773C18.7504 0.589367 17.6541 1.13023 16.66 1.90499C16.2654 2.21196 12.9617 5.44255 9.33642 9.08243C2.56828 15.8652 1.73506 16.83 1.19419 18.4087C0.653325 20.0313 0.638707 20.3821 0.682561 38.6546L0.726415 56.4886L1.04801 57.4388C2.02742 60.3039 4.3663 62.6428 7.23143 63.6222L8.1816 63.9438L26.2202 63.9876C44.0542 64.0169 44.2588 64.0169 45.3698 63.7245C48.4688 62.8913 51.0416 60.4208 52.0064 57.3657L52.328 56.3424V32.0035V7.66448L52.0064 6.64122C51.2462 4.25849 49.4482 2.13887 47.2701 1.04253C45.0774 -0.0538254 45.6914 -0.00997162 32.5937 0.0046463C21.791 0.0046463 20.8262 0.0338821 19.9199 0.267773ZM29.4216 15.1197C30.094 15.412 37.3299 22.5748 37.8854 23.4958C38.1924 24.022 38.2508 24.2559 38.1924 24.9722C38.1193 26.0247 37.6515 26.7117 36.7159 27.1649C35.3565 27.8227 34.6256 27.5303 32.5937 25.5569L31.0588 24.0659V32.8952C31.0588 40.248 31.0149 41.8852 30.8395 42.66C29.9478 46.3876 26.4395 48.9896 22.5803 48.7703C18.2095 48.5364 15.0813 45.2327 15.0813 40.8327C15.0813 38.757 15.7391 37.0905 17.1424 35.6287C18.765 33.9184 20.5923 33.129 22.8727 33.129C23.6913 33.1437 24.5391 33.2314 24.9484 33.3629C25.3285 33.4799 25.6647 33.5383 25.7086 33.4945C25.7671 33.4506 25.7963 29.6646 25.7963 25.0745C25.7963 15.4705 25.7232 16.0114 27.1119 15.2951C28.0036 14.8419 28.6322 14.7981 29.4216 15.1197Z" fill="#ADFA00"/>
</svg>
