<svg width="25" height="24" viewBox="0 0 25 24" fill="none" xmlns="http://www.w3.org/2000/svg">
<path d="M11.6098 0.0329285C9.83327 0.201679 8.51139 0.576679 7.01608 1.33605C5.2442 2.24074 3.65514 3.66574 2.49264 5.39074C2.29577 5.68605 1.95827 6.28605 1.74264 6.72668C0.955142 8.32043 0.580143 9.82512 0.514518 11.6017C0.444205 13.5986 0.856705 15.5017 1.74733 17.2923C2.37077 18.5532 3.01764 19.4439 4.03483 20.4657C5.07077 21.497 5.96608 22.1392 7.22702 22.7579C8.10827 23.1892 8.67546 23.4001 9.57077 23.6251C11.9145 24.2157 14.2676 24.1032 16.5551 23.2923C17.2536 23.0439 18.463 22.4392 19.0864 22.022C20.7973 20.8829 22.213 19.3126 23.1458 17.5079C23.9942 15.8767 24.4161 14.2548 24.4864 12.3986C24.5567 10.4017 24.1442 8.49855 23.2536 6.70793C22.6723 5.53605 22.0208 4.61262 21.1067 3.67043C20.0942 2.62043 19.1005 1.89855 17.7739 1.2423C16.3864 0.55793 15.0926 0.187616 13.5551 0.0469913C13.077 0.00480461 11.9942 -0.00457191 11.6098 0.0329285ZM17.2536 6.12199C18.8708 6.53918 19.8364 8.20793 19.3911 9.82512C19.1942 10.5517 19.1239 10.6407 17.2161 12.5439C15.5895 14.1704 15.4536 14.2923 15.1255 14.4517C14.6661 14.672 14.263 14.7657 13.7426 14.7657C12.4395 14.7657 11.3333 13.9689 10.902 12.7079C10.8505 12.5673 10.813 12.3845 10.813 12.2954C10.813 11.8267 11.277 11.5689 11.6614 11.8267C11.788 11.9111 11.8442 12.0048 11.938 12.2673C12.1583 12.8954 12.4536 13.2329 13.002 13.4907C13.2458 13.6032 13.3301 13.6173 13.7661 13.6173C14.5676 13.6173 14.5301 13.6454 16.4286 11.7517C17.802 10.3829 18.0551 10.1064 18.1817 9.85793C18.6364 8.93918 18.252 7.80012 17.338 7.35011C17.0426 7.2048 17.0005 7.19543 16.5083 7.19543C15.7583 7.19543 15.6364 7.26105 14.7083 8.17512C13.9255 8.94387 13.8176 9.00949 13.513 8.90637C13.3208 8.84543 13.213 8.73293 13.1567 8.54074C13.077 8.24543 13.1567 8.12355 13.9911 7.30324C14.6614 6.6423 14.8255 6.50636 15.1255 6.36105C15.3176 6.2673 15.5942 6.15949 15.7348 6.12199C16.0864 6.02824 16.8926 6.02824 17.2536 6.12199ZM12.2192 9.32824C12.838 9.53449 13.4333 9.99387 13.7942 10.5376C13.9864 10.8189 14.2348 11.4704 14.2348 11.6861C14.2348 12.1079 13.7567 12.3751 13.3864 12.1548C13.2458 12.0704 13.1614 11.9298 13.063 11.6017C12.9692 11.297 12.8005 11.0439 12.5239 10.7907C11.9286 10.2423 10.977 10.1626 10.2973 10.5939C10.1801 10.6689 9.37389 11.4423 8.5067 12.3142C6.6317 14.1939 6.66452 14.147 6.66452 14.9767C6.66452 15.4642 6.67389 15.5111 6.81452 15.8017C6.99733 16.1767 7.33483 16.5048 7.70983 16.6782C7.94889 16.7907 8.03327 16.8048 8.49264 16.8048C9.24264 16.8048 9.37389 16.7345 10.2739 15.8486C10.6583 15.4642 11.0239 15.1267 11.0801 15.0986C11.502 14.8829 12.027 15.3564 11.8442 15.7923C11.8161 15.8673 11.4364 16.2751 11.0098 16.697C10.3395 17.3532 10.1755 17.4892 9.87545 17.6345C9.38795 17.8736 9.00358 17.9626 8.4692 17.9579C7.62077 17.9532 6.95983 17.6767 6.35983 17.0673C5.73171 16.4298 5.49264 15.7923 5.52545 14.8361C5.54421 14.3532 5.56764 14.2267 5.68483 13.9173C5.76452 13.7251 5.90514 13.4486 5.99889 13.3079C6.09264 13.1673 6.92233 12.3048 7.84577 11.3861C9.68327 9.56262 9.7817 9.48293 10.5411 9.28137C10.9958 9.1548 11.7739 9.17824 12.2192 9.32824Z" fill="#2C2C2E"/>
</svg>
