<svg width="20" height="20" viewBox="0 0 20 20" fill="none" xmlns="http://www.w3.org/2000/svg">
<g clip-path="url(#clip0_136_583)">
<path d="M1.42971 2.56252C0.433618 2.80471 -0.191382 3.82033 0.0586185 4.78518C0.136743 5.07815 0.281275 5.34377 0.476587 5.5469C0.652369 5.72658 8.97268 11.293 9.27737 11.4297C9.74221 11.6406 10.293 11.6328 10.7696 11.4102C11.1407 11.2344 19.293 5.77737 19.5 5.56643C20.4727 4.57424 19.9414 2.88674 18.5508 2.55862C18.1836 2.47268 1.78909 2.47658 1.42971 2.56252Z" fill="#ADFA00"/>
<path d="M0 11.2656C0 14.4297 0.0117188 15.8789 0.0429688 16.0234C0.1875 16.7109 0.742188 17.2734 1.44922 17.4414C1.81641 17.5273 18.1172 17.5273 18.5273 17.4414C19.2383 17.293 19.8125 16.7227 19.957 16.0234C20.0078 15.7852 20.0195 6.70312 19.9688 6.72656C19.9531 6.73047 18.0664 7.98828 15.7734 9.51953C13.4805 11.0508 11.4805 12.3672 11.3242 12.4414C10.8945 12.6602 10.5273 12.7422 10 12.7422C9.47266 12.7422 9.10547 12.6602 8.67578 12.4414C8.51953 12.3672 6.51953 11.0508 4.22656 9.51953C1.93359 7.98828 0.046875 6.73047 0.03125 6.72656C0.0117188 6.71875 0 8.76172 0 11.2656Z" fill="#ADFA00"/>
</g>
<defs>
<clipPath id="clip0_136_583">
<rect width="20" height="20" fill="white"/>
</clipPath>
</defs>
</svg>
