<svg width="24" height="19" viewBox="0 0 24 19" fill="none" xmlns="http://www.w3.org/2000/svg">
    <path d="M18.6797 0.817139C18.6281 0.845263 18.0984 1.3562 17.4984 1.95151L16.4156 3.02964L15.764 2.81401C14.3437 2.34058 13.4672 2.19526 12 2.19995C10.8469 2.19995 10.3312 2.2562 9.33748 2.49995C7.34529 2.98745 5.29217 4.09839 3.46404 5.67339C2.39998 6.59683 1.01248 8.13433 0.290603 9.1937C0.0374781 9.5687 0.0234157 9.60151 0.00935316 9.92964C-0.0140843 10.3562 0.0468532 10.5015 0.529666 11.1718C1.35935 12.3296 2.60623 13.6656 3.71248 14.5796C4.0406 14.8562 4.31248 15.0906 4.31248 15.1046C4.31248 15.1234 3.90935 15.5359 3.41717 16.0234C2.92498 16.5156 2.49373 16.9703 2.45623 17.0406C2.41873 17.1109 2.3906 17.2515 2.3906 17.3593C2.3906 17.8421 2.82185 18.1796 3.31404 18.0859C3.47342 18.0578 4.34529 17.2 11.5453 10.0093C15.9703 5.58433 19.6265 1.89526 19.664 1.81557C19.8984 1.32339 19.5469 0.765575 19.0078 0.765575C18.8812 0.765575 18.7312 0.793701 18.6797 0.817139ZM13.0078 5.75308C13.589 5.90776 13.5984 5.84683 12.9094 6.53589L12.3047 7.14058H11.9765C10.9453 7.14058 9.90935 7.8062 9.47342 8.73901C9.26248 9.19839 9.18748 9.50776 9.18748 9.9437V10.2578L8.5781 10.8671C8.24529 11.2 7.95935 11.4625 7.94529 11.4484C7.93123 11.4343 7.87498 11.2562 7.81873 11.05C7.67342 10.5109 7.67342 9.39058 7.81873 8.85151C8.26404 7.2437 9.58592 6.02026 11.2265 5.7062C11.639 5.62651 12.6187 5.65464 13.0078 5.75308Z" fill="#828282"/>
    <path d="M17.4703 6.19369L15.7969 7.86713L15.9656 8.25619C16.8844 10.3843 15.9188 12.8968 13.8047 13.8718C13.1625 14.1671 12.8109 14.2421 12 14.2421C11.1984 14.2421 10.8563 14.1718 10.2328 13.8906L9.91876 13.7453L8.45157 15.2124C7.64532 16.0187 7.00313 16.689 7.02188 16.7078C7.07813 16.7593 7.96876 17.1062 8.43751 17.2609C9.66095 17.6593 10.6125 17.8046 12 17.7999C13.1859 17.7999 13.7203 17.7343 14.7422 17.4765C16.3594 17.064 18.0281 16.2531 19.5094 15.1515C20.9906 14.0499 22.7203 12.264 23.7094 10.8062C23.9391 10.4687 23.9719 10.389 23.9906 10.1406C24.0234 9.70932 23.9719 9.56869 23.625 9.04838C22.5703 7.48744 20.8688 5.75307 19.2797 4.61869L19.1438 4.52025L17.4703 6.19369Z" fill="#828282"/>
    <path d="M12.8249 10.839L11.0483 12.6155L11.3812 12.6905C13.1952 13.103 14.9062 11.6733 14.7983 9.83584C14.7749 9.41866 14.6999 9.06241 14.6343 9.06241C14.6155 9.06241 13.7999 9.86397 12.8249 10.839Z" fill="#828282"/>
</svg>