<svg width="40" height="40" viewBox="0 0 40 40" fill="none" xmlns="http://www.w3.org/2000/svg">
<path d="M38.0939 0.2C38.6939 0.425 39.5939 1.34375 39.8095 1.95312C40.3252 3.44375 39.6408 5.06562 38.2064 5.73125L37.672 5.98438H20.0002H2.32829L1.80329 5.74062C1.15642 5.43125 0.612667 4.90625 0.303291 4.2875C0.115791 3.90312 0.0782928 3.6875 0.0782928 2.98438C0.0782928 2.25312 0.115791 2.075 0.331417 1.6625C0.472042 1.4 0.790794 0.996875 1.04392 0.7625C1.93454 -0.0343752 0.256416 0.03125 20.0845 0.0406246C36.2845 0.0406246 37.7095 0.0593748 38.0939 0.2Z" fill="#ADFA00"/>
<path d="M26.094 11.5345C26.3658 11.6376 26.7127 11.8907 27.0877 12.2563C27.8002 12.9688 28.0065 13.5032 27.9502 14.497C27.9127 15.3032 27.6596 15.8845 27.0971 16.4376C26.619 16.9251 26.1971 17.1407 25.4846 17.272C24.7158 17.4126 3.2846 17.4126 2.51585 17.272C1.06273 17.0095 0.125225 15.9501 0.0502243 14.497C-0.00602531 13.5032 0.200224 12.9688 0.912724 12.2563C1.87835 11.2907 0.6971 11.3751 14.0377 11.3845C24.4065 11.3845 25.719 11.4032 26.094 11.5345Z" fill="#ADFA00"/>
<path d="M33.5193 22.7188C34.9255 22.9626 35.9755 24.2188 35.9755 25.6813C35.9849 26.9095 35.2255 28.0157 34.0911 28.4376C33.5943 28.6251 33.3786 28.6251 17.9943 28.6251C0.172379 28.6251 1.888 28.7095 0.913002 27.7438C0.2005 27.0313 -0.00574875 26.497 0.0505028 25.5032C0.1255 24.0501 1.063 22.9907 2.51612 22.7282C3.163 22.6063 32.8068 22.597 33.5193 22.7188Z" fill="#ADFA00"/>
<path d="M21.6225 34.072C23.0287 34.4095 23.9756 35.5907 23.9756 37.0157C23.9756 38.2251 23.2068 39.3688 22.1006 39.7813C21.585 39.9688 21.5006 39.9688 11.8631 39.9501L2.14121 39.922L1.67246 39.6688C0.678713 39.1438 0.116213 38.272 0.0505867 37.1563C0.0224628 36.5938 0.0505867 36.3501 0.219337 35.9188C0.472462 35.2345 1.08184 34.597 1.79434 34.2688L2.32871 34.0157L11.7975 33.997C17.1131 33.9876 21.4162 34.0251 21.6225 34.072Z" fill="#ADFA00"/>
</svg>
