<svg width="44" height="44" viewBox="0 0 44 44" fill="none" xmlns="http://www.w3.org/2000/svg">
<g clip-path="url(#clip0_514_207)">
<path d="M38.5 34.8333V9.16667C38.5 7.15 36.85 5.5 34.8333 5.5H9.16667C7.15 5.5 5.5 7.15 5.5 9.16667V34.8333C5.5 36.85 7.15 38.5 9.16667 38.5H34.8333C36.85 38.5 38.5 36.85 38.5 34.8333ZM16.3167 25.63L20.1667 30.2683L25.85 22.9533C26.2167 22.4767 26.95 22.4767 27.3167 22.9717L33.7517 31.5517C34.21 32.1567 33.77 33.0183 33.0183 33.0183H11.0367C10.2667 33.0183 9.845 32.1383 10.3217 31.5333L14.8867 25.6667C15.235 25.19 15.9317 25.1717 16.3167 25.63Z" fill="white"/>
</g>
<defs>
<clipPath id="clip0_514_207">
<rect width="44" height="44" fill="white"/>
</clipPath>
</defs>
</svg>
