<svg width="12" height="12" viewBox="0 0 12 12" fill="none" xmlns="http://www.w3.org/2000/svg">
<g clip-path="url(#clip0_61_10102)">
<path d="M3.77109 0.0234375C2.99766 0.0562496 2.46797 0.154687 2.02031 0.346874C1.60078 0.527344 1.35234 0.693749 1.04297 1.00078C0.625781 1.41562 0.365625 1.88203 0.201563 2.50781C0.05625 3.06094 0.0234375 3.69609 0.0234375 6C0.0234375 8.26641 0.0539063 8.90859 0.189844 9.46172C0.527344 10.8375 1.53516 11.7141 3.01875 11.918C3.44297 11.9742 4.33359 12 6.03516 12C7.61719 12 8.52891 11.9766 8.93906 11.9273C9.77813 11.8289 10.4344 11.5383 10.9523 11.0414C11.5359 10.4789 11.8453 9.80625 11.9578 8.84766C12.0023 8.47266 12.0023 3.47109 11.9578 3.11719C11.8664 2.4 11.6531 1.80937 11.3156 1.35703C11.1492 1.13203 10.793 0.792187 10.5703 0.639843C10.0664 0.299999 9.45938 0.112499 8.66016 0.0445309C8.28281 0.0140619 4.41094 -0.00234413 3.77109 0.0234375ZM8.84063 1.15547C9.50859 1.25391 9.88359 1.42031 10.2445 1.77891C10.4789 2.01328 10.6078 2.21953 10.7227 2.53828C10.9148 3.07734 10.9336 3.36328 10.9336 6.01172C10.9336 7.5375 10.9242 8.27109 10.9031 8.51719C10.8352 9.33047 10.6734 9.76875 10.2938 10.1742C9.89766 10.5961 9.40313 10.8047 8.63672 10.875C8.22188 10.9148 4.79297 10.9336 4.00313 10.9008C3.64688 10.8867 3.27422 10.8633 3.17344 10.8492C2.73047 10.7883 2.30156 10.6312 2.03438 10.4367C1.86797 10.3125 1.60078 10.0219 1.50234 9.85781C1.30547 9.52969 1.18828 9.06797 1.14844 8.48203C1.07812 7.41797 1.10156 3.76641 1.18125 3.16172C1.26562 2.53594 1.46016 2.11406 1.82813 1.75781C2.23125 1.36641 2.76094 1.17656 3.58125 1.125C3.75938 1.11562 4.95703 1.10859 6.24609 1.11328C8.24531 1.11797 8.62734 1.12266 8.84063 1.15547Z" fill="#ADFA00"/>
<path d="M8.91094 2.15625C8.64609 2.28984 8.51953 2.49609 8.51953 2.80078C8.51953 3.02109 8.57109 3.15234 8.72109 3.30234C8.87109 3.45 9.00234 3.50391 9.22266 3.50391C9.37969 3.50391 9.43125 3.49453 9.54375 3.43828C9.78047 3.32109 9.91406 3.11719 9.93281 2.84531C9.94922 2.60391 9.89531 2.46328 9.72891 2.29453C9.57422 2.13984 9.43828 2.08594 9.21094 2.08594C9.08437 2.08594 9.02812 2.1 8.91094 2.15625Z" fill="#ADFA00"/>
<path d="M5.4749 2.96728C4.8585 3.07978 4.3124 3.36806 3.85303 3.82978C3.24365 4.43681 2.95068 5.14696 2.95068 6.00009C2.95068 6.51571 3.04678 6.93993 3.26006 7.3665C3.91631 8.66962 5.36006 9.33759 6.76396 8.98837C7.31709 8.85009 7.74365 8.61103 8.1585 8.21025C8.53115 7.84931 8.78193 7.45556 8.93896 6.98446C9.05147 6.64462 9.09365 6.38212 9.09365 6.00009C9.09365 5.6204 9.05147 5.35556 8.94131 5.02275C8.79131 4.57275 8.57334 4.2165 8.2335 3.86493C7.76943 3.38681 7.19053 3.07743 6.55303 2.96493C6.29287 2.9204 5.72803 2.9204 5.4749 2.96728ZM6.40303 4.04071C7.47647 4.24696 8.18896 5.30165 7.98272 6.38212C7.85615 7.03603 7.37568 7.61728 6.76162 7.854C6.46162 7.97118 6.28818 7.99931 5.94131 7.98525C5.69521 7.97587 5.59912 7.96181 5.4374 7.91025C4.72725 7.68525 4.20928 7.11103 4.06396 6.38915C4.00771 6.11025 4.02881 5.67665 4.11318 5.41415C4.3335 4.71571 4.92178 4.18368 5.62256 4.04306C5.83115 4.00087 6.19209 4.00087 6.40303 4.04071Z" fill="#ADFA00"/>
</g>
<defs>
<clipPath id="clip0_61_10102">
<rect width="12" height="12" fill="white"/>
</clipPath>
</defs>
</svg>
