<svg width="14" height="14" viewBox="0 0 14 14" fill="none" xmlns="http://www.w3.org/2000/svg">
<g clip-path="url(#clip0_136_575)">
<path d="M3.00782 0.0410051C2.22579 0.158583 1.60509 0.470302 1.03634 1.03905C0.456653 1.616 0.136731 2.26952 0.0300903 3.0871C-0.0109253 3.40702 -0.0109253 10.593 0.0300903 10.9129C0.136731 11.7305 0.453918 12.3812 1.03634 12.9637C1.61876 13.5461 2.26954 13.8633 3.08712 13.9699C3.40704 14.0109 10.593 14.0109 10.9129 13.9699C11.7305 13.8633 12.3813 13.5461 12.9637 12.9637C13.5461 12.3812 13.8633 11.7305 13.9699 10.9129C14.0109 10.593 14.0109 3.40702 13.9699 3.0871C13.8633 2.26952 13.5434 1.616 12.9637 1.03905C12.3785 0.453896 11.7305 0.136708 10.9129 0.0300674C10.5629 -0.0164165 3.31681 -0.00547981 3.00782 0.0410051ZM11.1754 2.43632C11.766 2.71796 11.8289 3.55468 11.2848 3.91835C11.0906 4.0496 10.9676 4.08241 10.7352 4.06874C10.418 4.04686 10.1637 3.88007 10.0133 3.59569C9.9504 3.47811 9.93947 3.42616 9.93947 3.21288C9.93947 2.92304 9.99415 2.78085 10.1801 2.59764C10.3168 2.45819 10.4152 2.40624 10.6094 2.36249C10.8117 2.31874 10.9731 2.34061 11.1754 2.43632ZM7.56056 4.1453C8.44376 4.31483 9.19845 4.88905 9.60314 5.70116C9.81368 6.12499 9.90392 6.51054 9.90392 6.99999C9.90392 7.77108 9.63868 8.44647 9.11915 8.99335C8.54767 9.59491 7.83126 9.90389 7.00001 9.90389C5.59181 9.90389 4.43517 8.95507 4.14259 7.56054C4.08243 7.27069 4.08243 6.72929 4.14259 6.43944C4.2629 5.87069 4.50079 5.40858 4.88087 5.00663C5.1215 4.75233 5.32657 4.59374 5.61368 4.44335C6.24259 4.10975 6.86603 4.01405 7.56056 4.1453Z" fill="white"/>
</g>
<defs>
<clipPath id="clip0_136_575">
<rect width="14" height="14" fill="white"/>
</clipPath>
</defs>
</svg>
