<svg width="48" height="40" viewBox="0 0 48 40" fill="none" xmlns="http://www.w3.org/2000/svg">
<path d="M22.4531 0.931034C22.2469 0.959158 21.7219 1.03416 21.2812 1.10916C20.4469 1.24978 2.3625 6.64041 1.66875 6.94978C0.65625 7.40916 0 8.24353 0 9.06853C0.009375 9.88416 0.65625 10.6998 1.64063 11.1498C2.44688 11.5248 20.475 16.8967 21.4688 17.0654C22.6781 17.2623 25.3313 17.2623 26.55 17.056C27.5344 16.8967 45.1688 11.656 46.2188 11.2154C48.5906 10.2217 48.5625 7.84978 46.1719 6.87478C45.2812 6.51853 27.5625 1.24978 26.7469 1.09978C25.95 0.959158 23.2125 0.856033 22.4531 0.931034Z" fill="#ADFA00"/>
<path d="M44.0625 14.8624C43.575 15.0124 42.9469 15.1999 42.6844 15.2749L42.1875 15.4155V19.9437V24.4718L41.7938 24.6499C40.6594 25.1562 39.7406 26.1968 39.375 27.378C39.1969 27.9499 39.1875 28.2499 39.1875 31.6624C39.1875 34.4187 39.225 35.4405 39.3188 35.7968C39.9 37.9812 42.0938 39.4249 44.2688 39.0499C46.05 38.7405 47.4563 37.4562 47.8594 35.7405C48.0375 34.9812 48.0656 28.5687 47.8969 27.7624C47.6438 26.5624 46.6969 25.3249 45.6 24.7624L45 24.453L44.9813 19.5218L44.9531 14.5999L44.0625 14.8624Z" fill="#ADFA00"/>
<path d="M9.01882 18.7061C9.0657 21.2561 9.11257 21.4717 9.73132 22.2967C11.6532 24.8467 17.8969 26.4499 25.0782 26.253C31.1063 26.0842 35.8219 24.7999 37.8376 22.7749C38.4657 22.1374 38.7657 21.603 38.9063 20.853C39.0282 20.1874 39.0282 16.4374 38.9063 16.4374C38.8594 16.4374 36.4782 17.1405 33.6376 17.9936C30.7876 18.8467 28.0688 19.6249 27.6094 19.7186C26.4376 19.9717 24.3563 20.1124 23.0626 20.0374C21.0563 19.9249 20.1001 19.6999 14.5219 18.0311C11.6063 17.1499 9.16882 16.4374 9.1032 16.4374C9.00945 16.4374 8.9907 16.9342 9.01882 18.7061Z" fill="#ADFA00"/>
</svg>
