<svg width="20" height="20" viewBox="0 0 20 20" fill="none" xmlns="http://www.w3.org/2000/svg">
<g clip-path="url(#clip0_136_587)">
<path d="M3.25781 0.109383C3.14844 0.148445 2.97266 0.246101 2.86328 0.324226C2.75391 0.406258 2.13281 1.00782 1.48437 1.66798C0.226561 2.94532 0.156249 3.03516 0.0546863 3.51173C-0.273439 5.07032 1.02734 8.03126 3.33203 10.9727C4.66406 12.6758 6.49609 14.5625 8.19141 15.9766C10.7148 18.0859 13.2187 19.4883 15.1484 19.8711C15.3789 19.918 15.6836 19.9375 16.0937 19.9414C16.9961 19.9414 16.8828 20.0156 18.4687 18.4258C19.9648 16.9219 19.9766 16.9063 19.9805 16.3281C19.9805 15.7383 19.9766 15.7344 18.2148 13.9805C17.0977 12.8672 16.6523 12.4492 16.5195 12.3867C16.2734 12.2695 15.9453 12.2227 15.6875 12.2656C15.2656 12.332 15.125 12.4414 14.1094 13.4805C13.1094 14.4961 13.0234 14.5625 12.7812 14.4961C12.6055 14.4453 11.418 13.4649 10.293 12.4453C8.86328 11.1445 7.30859 9.51563 6.07031 8.02735C5.85937 7.76954 5.64453 7.50391 5.59375 7.4336C5.49219 7.28907 5.48437 7.08985 5.57812 6.94923C5.61328 6.89454 6.07812 6.42579 6.60547 5.90626C7.76172 4.76954 7.79297 4.72266 7.79297 4.1211C7.79297 3.50391 7.82422 3.54298 6.05859 1.78126C4.34375 0.0703201 4.34375 0.0703201 3.76953 0.0507889C3.54297 0.0390701 3.40234 0.0586014 3.25781 0.109383Z" fill="#ADFA00"/>
</g>
<defs>
<clipPath id="clip0_136_587">
<rect width="20" height="20" fill="white"/>
</clipPath>
</defs>
</svg>
