<svg width="20" height="20" viewBox="0 0 20 20" fill="none" xmlns="http://www.w3.org/2000/svg">
<path d="M9.18357 1.92188C8.44919 2.00391 7.56247 2.29297 6.87497 2.67578C5.19919 3.61328 4.09763 5.19531 3.72263 7.20703C3.6406 7.64844 3.62888 8.90625 3.7031 9.33594C3.88279 10.3633 4.23044 11.25 4.76169 12.0547C5.03122 12.4609 9.53904 17.9453 9.67966 18.0391C9.81638 18.1289 10.1836 18.1289 10.3203 18.0391C10.457 17.9492 14.9687 12.4609 15.2383 12.0547C15.7695 11.25 16.1172 10.3633 16.2968 9.33594C16.3711 8.90234 16.3593 7.65234 16.2773 7.19922C15.9843 5.63281 15.2343 4.30078 14.1054 3.35547C12.7578 2.22266 11.0195 1.71875 9.18357 1.92188ZM10.5234 5.68359C11.6523 5.92188 12.5 6.96875 12.5 8.125C12.5 9.54297 11.2773 10.6953 9.86325 10.6133C9.21091 10.5742 8.69919 10.3398 8.21482 9.85938C7.63279 9.27734 7.38279 8.42188 7.55857 7.60156C7.83982 6.26953 9.18357 5.39844 10.5234 5.68359Z" fill="#ADFA00"/>
</svg>
