<svg width="16" height="16" viewBox="0 0 16 16" fill="none" xmlns="http://www.w3.org/2000/svg">
<path d="M14.9063 1.41874C13.8438 1.80937 0.734383 6.84374 0.540632 6.93749C-0.0999925 7.24062 -0.174993 7.64062 0.359382 7.91249C0.412508 7.94062 1.29688 8.22187 2.33126 8.54374L4.20938 9.12812L8.47188 6.45937C10.8188 4.99374 12.7844 3.77499 12.8406 3.75624C12.9875 3.70624 13.1125 3.70937 13.1688 3.76874C13.2094 3.80937 13.2125 3.82812 13.1781 3.88749C13.1594 3.92812 11.6 5.34374 9.71876 7.03124C7.83751 8.72187 6.29063 10.1156 6.28438 10.1312C6.27813 10.1469 6.21563 10.9906 6.14376 12.0062L6.01251 13.85L6.15626 13.8312C6.23438 13.8219 6.35626 13.7812 6.42813 13.7406C6.50313 13.7031 6.99063 13.2594 7.51876 12.7562C8.04376 12.2531 8.49376 11.8312 8.51563 11.825C8.53751 11.8156 9.37501 12.4094 10.3781 13.1437C11.3781 13.8781 12.275 14.5125 12.3719 14.5562C12.625 14.675 12.9063 14.6844 13.0906 14.5875C13.2563 14.5 13.4156 14.2812 13.4844 14.0531C13.5094 13.9656 14.0844 11.3187 14.7563 8.17187C15.8781 2.93437 15.9813 2.42812 15.9813 2.15624C15.9813 1.89999 15.9719 1.83749 15.9031 1.70312C15.8563 1.60624 15.7719 1.50937 15.6906 1.45312C15.5063 1.32499 15.2 1.30937 14.9063 1.41874Z" fill="white"/>
</svg>
