<svg width="64" height="64" viewBox="0 0 64 64" fill="none" xmlns="http://www.w3.org/2000/svg">
<path d="M29.0127 0.137302C22.9377 0.674805 16.6502 3.24981 11.8127 7.18731C10.3877 8.3373 8.1377 10.6123 7.0127 12.0248C4.1502 15.6123 1.8002 20.4623 0.825195 24.8123C0.212695 27.5373 0.0751953 28.8748 0.0751953 31.9998C0.0751953 35.1248 0.212695 36.4623 0.825195 39.1873C1.8127 43.6248 4.2252 48.5498 7.1877 52.1873C8.3377 53.6123 10.6127 55.8623 12.0252 56.9873C15.6127 59.8498 20.4627 62.1998 24.8127 63.1748C27.5377 63.7873 28.8752 63.9248 32.0002 63.9248C35.1252 63.9248 36.4627 63.7873 39.1877 63.1748C42.4502 62.4498 46.7252 60.6248 49.5377 58.7623C54.4002 55.5248 58.1377 51.2748 60.7002 46.0623C62.7627 41.8498 63.7752 37.8373 63.9627 33.1498C64.2502 25.6748 61.8627 18.3623 57.1502 12.2498C56.1002 10.8873 53.1127 7.8998 51.7502 6.8498C45.1502 1.7623 37.2002 -0.5877 29.0127 0.137302ZM35.3627 25.4248C42.6752 29.0873 45.0377 30.3248 45.2252 30.5873C45.9127 31.5748 45.8377 32.7373 45.0377 33.5623C44.7127 33.8998 42.3627 35.1248 35.2377 38.6873C26.3127 43.1498 25.8377 43.3748 25.1752 43.3748C24.8002 43.3748 24.3377 43.2998 24.1502 43.1998C23.7002 42.9623 23.1752 42.3873 23.0127 41.9623C22.9127 41.7248 22.8752 38.4873 22.8752 31.9998C22.8752 25.5123 22.9127 22.2748 23.0127 22.0373C23.3252 21.1873 24.1752 20.6373 25.1627 20.6248C25.6877 20.6248 26.6877 21.0998 35.3627 25.4248Z" fill="#ADFA00"/>
</svg>
