<svg width="16" height="16" viewBox="0 0 16 16" fill="none" xmlns="http://www.w3.org/2000/svg">
<path d="M6.70313 3.45628C6.40001 3.47815 6.01251 3.53753 5.85938 3.5844C5.59376 3.66565 5.26563 3.9594 5.32501 4.0594C5.33751 4.07503 5.39688 4.10003 5.46251 4.11253C5.75001 4.16565 5.99063 4.32815 6.10001 4.54065C6.28438 4.90315 6.36876 6.04065 6.26876 6.84378C6.20313 7.37503 6.17501 7.4969 6.07501 7.69065C5.81563 8.2094 5.21251 7.79065 4.55001 6.62815C4.31251 6.21565 3.65001 4.89065 3.50313 4.53753C3.32188 4.1094 3.26563 4.03128 3.06251 3.92815L2.89063 3.84065L1.59376 3.85003C0.42188 3.8594 0.287505 3.86565 0.19688 3.91565C0.0500054 3.99378 -0.0124946 4.10315 0.00938043 4.24378C0.0281304 4.39378 0.518755 5.48753 0.881255 6.18753C1.58751 7.55003 2.18751 8.54065 2.82501 9.40628C3.76563 10.6782 4.18126 11.0907 5.14063 11.7032C5.58751 11.9907 5.91251 12.15 6.31251 12.2844C6.86251 12.4688 7.10001 12.5032 7.92188 12.5219C8.73751 12.5407 8.97188 12.5157 9.14688 12.3969C9.28751 12.3 9.33126 12.1657 9.35938 11.75C9.38438 11.3375 9.46563 10.9844 9.57501 10.7969C9.67501 10.6313 9.88438 10.4375 9.97813 10.4344C10.2938 10.4188 10.4719 10.55 11.1344 11.2938C11.7563 11.9907 11.9844 12.1938 12.3281 12.3594C12.4844 12.4313 12.6719 12.5063 12.75 12.525C12.9375 12.5688 15.4688 12.5188 15.6313 12.4719C15.7938 12.4219 15.9688 12.25 15.9719 12.1375C15.9844 11.8282 15.9375 11.6875 15.7219 11.3594C15.4344 10.9282 15.1906 10.6532 14.3563 9.82815C13.4688 8.95003 13.4094 8.86878 13.4063 8.57503C13.4063 8.32815 13.5219 8.14065 14.3 7.1094C15.3969 5.65628 15.8344 4.95315 15.9563 4.4594C16.0281 4.16878 15.9875 4.02815 15.8031 3.92815L15.6719 3.8594L14.0938 3.86878C12.9781 3.87815 12.4938 3.89065 12.4375 3.91565C12.3313 3.96565 12.2219 4.15003 12.0813 4.50003C11.7063 5.4344 10.9344 6.78128 10.425 7.38753C10.2219 7.62815 9.90626 7.87503 9.80313 7.87503C9.65626 7.87503 9.53438 7.78128 9.44376 7.59378L9.35938 7.4219L9.36876 5.80003C9.37813 4.05315 9.37188 4.00315 9.21251 3.7719C9.05313 3.5469 8.66563 3.46878 7.62501 3.45315C7.20313 3.45003 6.79063 3.45003 6.70313 3.45628Z" fill="white"/>
</svg>
