<svg width="16" height="16" viewBox="0 0 16 16" fill="none" xmlns="http://www.w3.org/2000/svg">
<path d="M6.42188 2.62811C3.89376 2.67499 2.40938 2.79062 1.94376 2.97812C1.52188 3.14999 1.16876 3.47186 0.959381 3.86874C0.687506 4.38437 0.543756 5.51561 0.509381 7.40624C0.484381 8.91562 0.565631 10.2875 0.737506 11.1562C0.921881 12.1031 1.43126 12.6437 2.30938 12.8281C3.10938 12.9969 5.23126 13.0969 8.01563 13.0937C10.8594 13.0937 12.8844 13 13.7344 12.8281C14.0125 12.7719 14.4063 12.575 14.6125 12.3937C14.8281 12.2031 15.0469 11.875 15.1375 11.6062C15.3875 10.8687 15.5406 8.72187 15.4719 6.94062C15.3781 4.52186 15.1813 3.76249 14.5156 3.25937C14.2094 3.02812 13.9969 2.94374 13.5219 2.85936C12.9344 2.75937 11.5219 2.67186 10.0313 2.64061C8.28751 2.60624 7.66251 2.60312 6.42188 2.62811ZM8.43751 6.72812C9.49063 7.33436 10.35 7.84374 10.35 7.85936C10.3469 7.88437 6.55001 10.0937 6.50938 10.0937C6.50626 10.0937 6.50001 9.08749 6.50001 7.85936C6.50001 6.63124 6.50626 5.62499 6.51251 5.62499C6.51876 5.62499 7.38438 6.12186 8.43751 6.72812Z" fill="white"/>
</svg>
