<svg width="547" height="77" viewBox="0 0 547 77" fill="none" xmlns="http://www.w3.org/2000/svg">
<g clip-path="url(#clip0_136_928)">
<path d="M525.951 77H21.0487C18.2844 77.0006 15.547 76.4538 12.993 75.3907C10.439 74.3277 8.11839 72.7694 6.16372 70.8047C4.20905 68.84 2.65864 66.5075 1.60105 63.9404C0.54346 61.3733 -0.000582783 58.6219 4.68467e-07 55.8434V21.1566C4.68467e-07 15.5455 2.21763 10.1643 6.16502 6.19662C10.1124 2.22899 15.4662 0 21.0487 0H525.951C531.534 0 536.888 2.22899 540.835 6.19662C544.782 10.1643 547 15.5455 547 21.1566V55.8434C547 61.4545 544.782 66.8357 540.835 70.8034C536.888 74.771 531.534 77 525.951 77" fill="#152200"/>
<path d="M109.737 12.129H69.0555C69.0096 12.129 68.9655 12.1473 68.933 12.18C68.9006 12.2126 68.8823 12.2569 68.8823 12.303V64.7059C68.8823 64.752 68.9006 64.7963 68.933 64.8289C68.9655 64.8616 69.0096 64.8799 69.0555 64.8799H109.737C112.815 64.8752 115.767 63.6438 117.944 61.4555C120.121 59.2673 121.346 56.3007 121.351 53.2061V23.8028C121.346 20.7082 120.121 17.7416 117.944 15.5534C115.767 13.3652 112.815 12.1337 109.737 12.129M96.5018 49.0872C96.4818 49.4434 96.3268 49.7784 96.0689 50.0235C95.8109 50.2685 95.4694 50.4051 95.1144 50.4051C94.7594 50.4051 94.4179 50.2685 94.1599 50.0235C93.902 49.7784 93.747 49.4434 93.727 49.0872V27.9128C93.747 27.5566 93.902 27.2216 94.1599 26.9765C94.4179 26.7315 94.7594 26.5949 95.1144 26.5949C95.4694 26.5949 95.8109 26.7315 96.0689 26.9765C96.3268 27.2216 96.4818 27.5566 96.5018 27.9128V49.0872Z" fill="#ADFA00"/>
<path d="M280.168 12.129H239.487C239.442 12.1301 239.398 12.1488 239.366 12.1812C239.334 12.2136 239.315 12.2572 239.314 12.303V64.7059C239.315 64.7517 239.334 64.7953 239.366 64.8277C239.398 64.8601 239.442 64.8788 239.487 64.8799H263.986C264.032 64.8799 264.077 64.8617 264.11 64.8292C264.143 64.7967 264.162 64.7524 264.163 64.7059V60.172C264.163 59.8489 264.291 59.539 264.518 59.3106C264.746 59.0821 265.054 58.9537 265.375 58.9537H280.173C283.247 58.9479 286.194 57.719 288.37 55.5357C290.545 53.3524 291.772 50.3922 291.783 47.3022V23.8028C291.778 20.7082 290.553 17.7416 288.376 15.5534C286.199 13.3652 283.247 12.1337 280.168 12.129M266.934 43.17C266.914 43.5262 266.759 43.8612 266.501 44.1062C266.243 44.3513 265.901 44.4878 265.546 44.4878C265.191 44.4878 264.85 44.3513 264.592 44.1062C264.334 43.8612 264.179 43.5262 264.159 43.17V27.9128C264.159 27.5435 264.305 27.1894 264.565 26.9283C264.824 26.6672 265.177 26.5205 265.544 26.5205C265.91 26.5231 266.261 26.6669 266.525 26.9221C266.785 27.1856 266.932 27.5415 266.934 27.9128V43.17Z" fill="#ADFA00"/>
<path d="M178.157 12.303V53.1972C178.152 56.2918 176.927 59.2583 174.75 61.4466C172.573 63.6348 169.622 64.8663 166.543 64.871H137.307C134.228 64.8674 131.275 63.6365 129.097 61.4482C126.919 59.2598 125.693 56.2926 125.688 53.1972V12.303C125.69 12.2572 125.708 12.2136 125.74 12.1812C125.773 12.1488 125.816 12.1301 125.862 12.129H150.364C150.41 12.129 150.454 12.1473 150.487 12.18C150.519 12.2126 150.538 12.2569 150.538 12.303V49.0872C150.558 49.4434 150.713 49.7784 150.971 50.0235C151.229 50.2685 151.57 50.4051 151.925 50.4051C152.28 50.4051 152.621 50.2685 152.879 50.0235C153.137 49.7784 153.292 49.4434 153.312 49.0872V12.303C153.312 12.2569 153.331 12.2126 153.363 12.18C153.396 12.1473 153.44 12.129 153.486 12.129H177.984C178.007 12.129 178.029 12.1335 178.05 12.1422C178.071 12.151 178.09 12.1638 178.106 12.18C178.122 12.1961 178.135 12.2153 178.144 12.2364C178.153 12.2575 178.157 12.2802 178.157 12.303" fill="#ADFA00"/>
<path d="M208.223 31.3444C208.223 31.5273 208.259 31.7083 208.328 31.8772C208.398 32.0461 208.5 32.1996 208.628 32.3289C208.757 32.4582 208.91 32.5608 209.078 32.6307C209.246 32.7007 209.426 32.7367 209.608 32.7367H223.371C226.45 32.7402 229.402 33.9713 231.58 36.1598C233.757 38.3483 234.982 41.3155 234.985 44.4105V53.1972C234.982 56.2922 233.757 59.2594 231.58 61.4479C229.402 63.6364 226.45 64.8674 223.371 64.871H182.677C182.631 64.871 182.587 64.8526 182.554 64.82C182.522 64.7874 182.503 64.7431 182.503 64.6969V47.2264C182.503 47.2033 182.507 47.1804 182.515 47.159C182.524 47.1376 182.537 47.1182 182.553 47.1019C182.569 47.0856 182.588 47.0728 182.61 47.0643C182.631 47.0558 182.654 47.0517 182.677 47.0523H207.872C208.226 47.0322 208.56 46.8765 208.804 46.6171C209.047 46.3578 209.183 46.0146 209.183 45.6578C209.183 45.301 209.047 44.9578 208.804 44.6985C208.56 44.4391 208.226 44.2834 207.872 44.2633H194.109C191.029 44.2585 188.076 43.025 185.9 40.8336C183.724 38.6422 182.502 35.6722 182.503 32.5761V23.8073C182.506 20.7115 183.73 17.7431 185.908 15.5537C188.085 13.3642 191.038 12.1325 194.118 12.129H234.794C234.817 12.129 234.84 12.1335 234.861 12.1422C234.882 12.151 234.901 12.1638 234.917 12.18C234.933 12.1961 234.946 12.2153 234.954 12.2364C234.963 12.2575 234.968 12.2802 234.968 12.303V29.7736C234.968 29.7966 234.964 29.8195 234.956 29.8409C234.947 29.8623 234.934 29.8818 234.918 29.8981C234.902 29.9143 234.883 29.9271 234.861 29.9357C234.84 29.9442 234.817 29.9483 234.794 29.9477H209.604C209.236 29.95 208.885 30.0982 208.627 30.3599C208.368 30.6216 208.223 30.9755 208.223 31.3444" fill="#ADFA00"/>
<path d="M336.975 12.129H307.739C304.661 12.1349 301.711 13.3669 299.535 15.555C297.358 17.7431 296.134 20.709 296.129 23.8028V64.7059C296.129 64.752 296.147 64.7963 296.18 64.8289C296.212 64.8616 296.256 64.8799 296.302 64.8799H320.796C320.842 64.8799 320.886 64.8616 320.919 64.8289C320.951 64.7963 320.969 64.752 320.969 64.7059V60.3505C320.989 59.9943 321.144 59.6593 321.402 59.4142C321.66 59.1692 322.002 59.0327 322.357 59.0327C322.712 59.0327 323.053 59.1692 323.311 59.4142C323.569 59.6593 323.724 59.9943 323.744 60.3505V64.7059C323.745 64.7517 323.764 64.7953 323.796 64.8277C323.828 64.8601 323.872 64.8788 323.917 64.8799H348.425C348.47 64.8788 348.514 64.8601 348.546 64.8277C348.578 64.7953 348.597 64.7517 348.598 64.7059V23.8028C348.593 20.7066 347.367 17.7388 345.188 15.5503C343.009 13.3617 340.055 12.1314 336.975 12.129M323.74 43.17C323.72 43.5262 323.565 43.8612 323.307 44.1062C323.049 44.3513 322.707 44.4878 322.352 44.4878C321.997 44.4878 321.656 44.3513 321.398 44.1062C321.14 43.8612 320.985 43.5262 320.965 43.17V27.9128C320.965 27.5412 321.112 27.1848 321.373 26.9221C321.568 26.7286 321.816 26.5973 322.084 26.5446C322.353 26.492 322.632 26.5204 322.884 26.6262C323.137 26.7321 323.353 26.9107 323.506 27.1396C323.658 27.3685 323.739 27.6375 323.74 27.9128V43.17Z" fill="#ADFA00"/>
<path d="M378.65 38.5022C378.65 38.6854 378.686 38.8669 378.756 39.0361C378.826 39.2053 378.928 39.359 379.057 39.4883C379.187 39.6176 379.34 39.7201 379.508 39.7898C379.677 39.8595 379.858 39.8951 380.04 39.8945H405.235C405.281 39.8956 405.324 39.9143 405.356 39.9467C405.389 39.9791 405.407 40.0228 405.408 40.0686V64.7059C405.407 64.7517 405.389 64.7953 405.356 64.8277C405.324 64.8601 405.281 64.8788 405.235 64.8799H364.55C361.473 64.8693 358.526 63.634 356.353 61.4445C354.181 59.255 352.96 56.2895 352.958 53.1972V23.8028C352.962 20.7082 354.187 17.7416 356.364 15.5534C358.542 13.3652 361.493 12.1337 364.572 12.129H405.253C405.299 12.1301 405.342 12.1488 405.374 12.1812C405.406 12.2136 405.425 12.2572 405.426 12.303V36.9314C405.425 36.9772 405.406 37.0208 405.374 37.0532C405.342 37.0856 405.299 37.1043 405.253 37.1055H380.04C379.672 37.1067 379.32 37.2543 379.06 37.5161C378.8 37.778 378.655 38.1326 378.655 38.5022" fill="#ADFA00"/>
<path d="M38.1416 30.4073C37.9136 30.6658 37.7874 30.999 37.7864 31.3444C37.7864 31.3935 37.7864 31.4381 37.7864 31.4828C37.83 31.8317 37.9997 32.1524 38.2634 32.3836C38.527 32.6149 38.8661 32.7405 39.216 32.7367H64.3759C64.4218 32.7367 64.4658 32.755 64.4983 32.7877C64.5308 32.8203 64.549 32.8646 64.549 32.9107V44.0669C64.5479 44.1127 64.5293 44.1563 64.4971 44.1887C64.4648 44.2211 64.4214 44.2398 64.3759 44.241H39.2293C39.0303 44.2394 38.833 44.2781 38.6492 44.3547C38.4653 44.4314 38.2987 44.5445 38.1593 44.6872C38.0306 44.8208 37.9309 44.9798 37.8667 45.1542C37.8025 45.3286 37.7751 45.5146 37.7864 45.7002C37.8079 46.055 37.9631 46.3882 38.2204 46.632C38.4778 46.8757 38.818 47.0117 39.1716 47.0122H64.3759C64.4218 47.0122 64.4658 47.0305 64.4983 47.0631C64.5308 47.0958 64.549 47.14 64.549 47.1862V64.7059C64.5479 64.7517 64.5293 64.7953 64.4971 64.8277C64.4648 64.8601 64.4214 64.8788 64.3759 64.8799H23.6858C20.6066 64.8764 17.6545 63.6453 15.4772 61.4568C13.2998 59.2683 12.0751 56.3011 12.0715 53.2061V43.6073C12.0727 42.623 12.4623 41.6793 13.1547 40.9833C13.8472 40.2872 14.7861 39.8957 15.7654 39.8945C16.1095 39.8943 16.4426 39.7727 16.7066 39.5509C16.9241 39.3685 17.0803 39.123 17.1538 38.8481C17.2274 38.5731 17.2147 38.282 17.1176 38.0145C17.0205 37.7471 16.8436 37.5162 16.6112 37.3535C16.3787 37.1908 16.1019 37.1042 15.8187 37.1055H15.7698C14.7897 37.1043 13.8502 36.7121 13.1576 36.0151C12.465 35.3181 12.076 34.3733 12.076 33.3882V23.8028C12.0795 20.7086 13.3037 17.742 15.48 15.5537C17.6564 13.3653 20.6074 12.1337 23.6858 12.129H64.3759C64.4214 12.1301 64.4648 12.1488 64.4971 12.1812C64.5293 12.2136 64.5479 12.2572 64.549 12.303V29.7736C64.5479 29.8194 64.5293 29.863 64.4971 29.8954C64.4648 29.9278 64.4214 29.9465 64.3759 29.9477H39.1716C38.9786 29.9471 38.7876 29.9864 38.6104 30.0632C38.4332 30.14 38.2736 30.2525 38.1416 30.3939" fill="#ADFA00"/>
<path d="M435.821 30.4073C435.691 30.5525 435.594 30.723 435.533 30.9081C435.473 31.0932 435.451 31.2889 435.47 31.4828C435.513 31.8317 435.683 32.1524 435.947 32.3836C436.21 32.6149 436.55 32.7405 436.899 32.7367H462.042C462.087 32.7367 462.132 32.755 462.164 32.7877C462.196 32.8203 462.215 32.8646 462.215 32.9107V44.0669C462.214 44.1127 462.195 44.1563 462.163 44.1887C462.131 44.2211 462.087 44.2398 462.042 44.241H436.904C436.706 44.2395 436.509 44.2782 436.326 44.3549C436.143 44.4316 435.977 44.5446 435.838 44.6872C435.71 44.8208 435.61 44.9798 435.546 45.1542C435.482 45.3286 435.454 45.5146 435.465 45.7002C435.487 46.055 435.642 46.3882 435.899 46.632C436.157 46.8757 436.497 47.0117 436.851 47.0122H462.042C462.087 47.0122 462.132 47.0305 462.164 47.0631C462.196 47.0958 462.215 47.14 462.215 47.1862V64.7059C462.214 64.7517 462.195 64.7953 462.163 64.8277C462.131 64.8601 462.087 64.8788 462.042 64.8799H421.36C418.282 64.8752 415.33 63.6438 413.153 61.4555C410.976 59.2673 409.751 56.3007 409.746 53.2061V43.6073C409.747 42.6222 410.137 41.6778 410.831 40.9817C411.524 40.2855 412.464 39.8945 413.444 39.8945C413.787 39.8951 414.119 39.7734 414.381 39.5509C414.654 39.3283 414.83 39.0086 414.874 38.6584C414.894 38.4643 414.873 38.2682 414.813 38.0827C414.752 37.8973 414.654 37.7266 414.524 37.5819C414.393 37.4372 414.234 37.3215 414.057 37.2425C413.879 37.1635 413.687 37.1229 413.493 37.1233H413.444C412.464 37.1221 411.524 36.7301 410.831 36.0333C410.137 35.3364 409.747 34.3916 409.746 33.4061V23.8028C409.751 20.7082 410.976 17.7416 413.153 15.5534C415.33 13.3652 418.282 12.1337 421.36 12.129H462.042C462.087 12.1301 462.131 12.1488 462.163 12.1812C462.195 12.2136 462.214 12.2572 462.215 12.303V29.7736C462.214 29.8194 462.195 29.863 462.163 29.8954C462.131 29.9278 462.087 29.9465 462.042 29.9477H436.868C436.675 29.9466 436.484 29.9856 436.307 30.0624C436.13 30.1392 435.97 30.2521 435.838 30.3939" fill="#ADFA00"/>
<path d="M484.879 26.159C480.034 29.4277 475.518 33.1642 471.396 37.3152C471.301 37.4139 471.238 37.5383 471.213 37.6731C471.187 37.8079 471.202 37.9471 471.255 38.0735C471.308 38.1999 471.397 38.3079 471.51 38.3841C471.624 38.4603 471.757 38.5014 471.893 38.5022H488.52C488.654 38.5017 488.786 38.5405 488.899 38.6139C489.012 38.6873 489.101 38.7922 489.156 38.9156C489.21 39.0391 489.228 39.1759 489.207 39.3093C489.185 39.4427 489.126 39.567 489.035 39.6669C481.714 47.8511 478.473 55.6738 481.421 60.0515C481.629 60.3538 481.862 60.6375 482.118 60.8994C487.619 66.4864 504.689 62.2158 521.374 50.8499C526.216 47.5784 530.73 43.8422 534.853 39.6937C534.95 39.5958 535.016 39.4712 535.042 39.3357C535.068 39.2002 535.053 39.0599 535 38.9327C534.947 38.8054 534.857 38.697 534.742 38.6212C534.628 38.5453 534.493 38.5055 534.356 38.5067H517.733C517.599 38.5072 517.467 38.4684 517.354 38.395C517.241 38.3216 517.152 38.2168 517.098 38.0933C517.043 37.9698 517.025 37.833 517.047 37.6996C517.068 37.5662 517.128 37.4419 517.218 37.342C524.539 29.1578 527.776 21.3351 524.828 16.9574C524.622 16.6541 524.389 16.3703 524.131 16.1095C518.63 10.5225 501.56 14.7708 484.879 26.1635" fill="white"/>
</g>
<defs>
<clipPath id="clip0_136_928">
<rect width="547" height="77" fill="white"/>
</clipPath>
</defs>
</svg>
